<svg xmlns="http://www.w3.org/2000/svg" viewBox="0 0 146.5 180.09"><title>Asset 22</title><path d="M101.14.16c-3,19.7-24.57,26-40.63,31.89Q46.59,37.14,32.66,42.22c-5.77,2.12-11.47,4.3-14.73,9.84S11.62,64.88,13,71.5c.18.84,4.06,8.84,3.93,9.09.41-.77-4.85-1.52-5.51-1.46-8.67.76-16.19,14.92-7.82,20.71a10.22,10.22,0,0,0,12.15-.7c4.92-4.25,5-11.66,3.18-17.37-.07-.23-.47-.2-.44.06,1.18,8.8,2.36,17.73,1.68,26.62A49.07,49.07,0,0,1,17.38,122c-.77,2.07-5.28,12-9.2,8.56l-1-3.73c-1.57-1.83-1.68-3.33-.33-4.48.64-1.35,2.22-2.58,3.22-3.74,5.74-6.67,11.27-13.79,18.09-19.42,5.57-4.61,14.26-6.86,17.14-14.14C48,78.4,37.31,79.4,35,83.91c-4.43,8.76,6.66,19.17,13.12,10.1,1.58-2.22,2.24-5,3.16-7.47.79-2.21,1.82-4.72,3.58-6.38.52-.49,4.82-3.26,5.83-.83.57,1.36,0,1.13-.37,1.82C59.4,83,56,83.76,54.71,85.74a7.59,7.59,0,0,0-1.21,5.65c1,4.32,4.74,4.62,8.26,4,1.69-.31.31-2.53,3.15.42,2.34,2.43,1.17,7.8-.9,9.94-3.49,3.59-7.62,1.38-11.77,2.37-2.34.57-4.69,1.38-2.69,3.53,3.14,3.37,10.43,2,13.89.09,8.25-4.49,10-19.74-.64-22.44a12.85,12.85,0,0,0-1.87-.3c-2-.91-2.42-2.09-.56-4,.54-.57,1.19-1,1.75-1.59a26.74,26.74,0,0,0,2.66-3,57.7,57.7,0,0,0,6.86-12.58c1.66-3.93,2.55-8.75,4.63-12.42,1.3-2.32.16,1.68.09,2.69-.24,3.8-2.16,4.14-5.59,3.8-4.71-.45-4.08-.88-.17-.79a55.44,55.44,0,0,1,8.73.89c1.16.21,2.32.47,3.47.76s4.11.2,2.62,1.35c-2.19,1.7-6.64-.12-9-1a.22.22,0,0,0-.28.22,212.17,212.17,0,0,0,1.87,28.39c.79,5.77.76,13.18,6,16.91,2.88,2,5.77,2.23,6.57-1.57,1.18-5.69-3.62-11.07-1.73-16.52A8.16,8.16,0,0,1,98.81,85c4.41,1.12.65.12-.5,0a10.8,10.8,0,0,0-8,2.31c-3.19,2.76-4.55,8.1-1.56,11.49,2.58,2.94,7.09,3.1,9.41-.16,1.21-1.71,1.55-3.91,1.92-5.92a44.19,44.19,0,0,1,.88-4.56,10,10,0,0,1,.94-2.43c1.53-2.34.11.77.05,1-1.19,4.45-2.52,9-.93,13.55.87,2.51,2.08,3.39,4.26,1.7s3.84-5.45,5.22-7.92a111.87,111.87,0,0,0,5.72-11.5,45.19,45.19,0,0,0,3.59-15.27C120,63.09,120,56,116.3,53c-3.88-3.16-5,2.05-5.46,4.91a77.93,77.93,0,0,0,.53,25.27c1.3,7,3.25,16.7,7.94,22.36,3.26,3.94,7.28,2.25,9.25-2,3.47-7.44,2.28-16.75,1.37-24.61-.53-4.65-1.18-9.3-1.33-14a46.2,46.2,0,0,1,.46-8.79c.07-.43,1-4,.23-3-1,1.35-.17,5.89,0,7.39.32,3.35.27,2.54-2,2s-4.58-1.35-6.83-.64a.23.23,0,0,0,0,.44,71.07,71.07,0,0,0,9.82,2.06c2.18.3,7.08,1.63,9.21.67,1.31-.6,2-.9,0-2.16-2.47-1.52-7.71-.35-9.39,2-1.23,1.7-1.17,4.32-1,6.27a96.32,96.32,0,0,0,3.05,15.11c2.41,9.46,7,17.42,11.39,26.07,3,5.92,3,10.72.51,16.81-4.58,11.33-13.32,21.26-21.9,29.77A49.13,49.13,0,0,1,111,167.6c-7.08,3.9-15.25,6.32-21.12,12.1a.22.22,0,0,0,.31.32c7.79-7.66,19.45-9.39,27.65-16.53a124.6,124.6,0,0,0,18.45-20.35c4.79-6.56,10.92-15.47,10.09-24.08-.54-5.64-4.67-11-7.23-15.83-4.54-8.66-7-17.67-8.83-27.22-1-5.3-1.5-14.36,6.46-13.21-.4,0,3.9.9,3,1.77-.21.2-1.08,0-1.36,0-1.18.29-3-.13-4.18-.24-2.5-.22-5-.56-7.47-1-.71-.13-1.43-.27-2.14-.42-.55-.13-4.45-.77-1.78-.64,2.45.11,4.7,1.82,6.93,2a.22.22,0,0,0,.22-.23c-.23-4.37-.93-8.26.17-12.63a.22.22,0,0,0-.43-.12c-4.08,14.06,1.52,28.11.49,42.31a36,36,0,0,1-.94,6.29,18.26,18.26,0,0,1-1.4,4q-1,3.3-4.44,2.17c-3.7.07-4.17-1-5.65-4.07a67.1,67.1,0,0,1-2.71-6.76,79.4,79.4,0,0,1-4.58-25.58c0-3-.64-11,1-13.52,4.28-6.39,6.31-.2,7,2.11a24.29,24.29,0,0,1,.82,6.24A42.6,42.6,0,0,1,116.71,80a85.27,85.27,0,0,1-10.08,19.62c-3.69,5.21-5.82-.85-5.93-4.09A23.13,23.13,0,0,1,104,83.64c.1-.18-.11-.44-.31-.31-3.32,2.32-3.45,6.22-4.16,9.92a18.13,18.13,0,0,1-.83,3.32c-2,5-7.36,4.8-10.36,1-2.82-3.58.5-8.59,3.32-10.67,3-2.21,7.23-1.58,10.48-.51.25.08.37-.28.17-.41C97.66,82.87,91.59,83.83,89,89.08c-3,6,3,11.27,1.24,17.28s-7.74.94-9.38-2.54a16.72,16.72,0,0,1-1.2-4.77c-1-5.91-1.78-11.82-2.29-17.79-.21-2.52-.38-5.05-.5-7.57-.07-1.48-1.11-7.2-.23-8.53,1.14-1.73,3-.53,4.64-.34A18.87,18.87,0,0,0,88,64.25a.22.22,0,0,0,0-.43A58.79,58.79,0,0,0,65.3,60.75a.22.22,0,0,0-.06.44,31.66,31.66,0,0,0,11.09,1.08.23.23,0,0,0,.23-.22l.6-9.44c0-.27-.37-.3-.44-.06C73.6,62.1,70.38,72.88,63.87,80.8c-1.92,2.33-8.77,6.68-3.66,8.52,1.69.61,3.13.5,4.76,1.49A9.49,9.49,0,0,1,69.4,97a12.35,12.35,0,0,1-5.12,13.65c-2.69,1.78-7.57,3.4-10.74,2.07-2-.85-3.85-2.94-1.18-4.23,1.47-.71,3.31-.28,4.86-.17,8.49.54,12.55-9,6.22-14.86a.22.22,0,0,0-.32,0c-3.43,4.18-8.44,1-9.31-3.42-.72-3.64,2.78-5.55,5-7.18a12,12,0,0,0,2.81-2.61.21.21,0,0,0,0-.23c-.47-.78-.58-1.85-1.47-2.28-1.86-.9-4.38.84-5.63,2.07-4.93,4.83-4.75,19.61-14.41,16.74-4.48-1.33-6.46-6.14-5.44-10.48.6-2.55,5.3-6.87,8.38-5.2,6,3.24-3.11,10.33-6.17,12a67.63,67.63,0,0,0-17.51,14.23c-3.06,3.39-6,6.9-9,10.37-1.93,2.24-5.41,4.89-6.19,7.85C3.3,129,7.29,131.77,10.52,131c4.77-1.12,6.89-7.33,8.13-11.38,2.41-7.92,2.5-16.31,1.86-24.5-.19-2.38-.44-4.76-.73-7.13-.09-.74-.72-6.11-.63-4.06.26,5.88.89,12.85-5.48,16.1C8,102.93.67,99.51.57,92.85.44,84.75,10.25,74.91,17.8,82a.23.23,0,0,0,.38-.16c0-.87-1.17-2-1.61-2.79-1.84-3.3-3.43-7-3.52-10.9-.13-6.2,3.52-15.09,8-19.43s11.53-6,17.27-8.07l18.57-6.78c17-6.2,41.38-12.43,44.66-33.56,0-.28-.39-.4-.44-.12Z"/></svg>