<svg width="652" height="870" viewBox="0 0 652 870" fill="none" xmlns="http://www.w3.org/2000/svg">
<path d="M120.5 869C146.667 814.667 210.3 700 255.5 676L223.5 691L195.5 721L167 747.5L134 764L112.5 757.5H95.5V764L74 757.5V747.5H49H32.5V721L17.5 701V676L32.5 656L17.5 639.5L6 617.5V593L17.5 566L32.5 536L49 518V508L56.5 503L60.5 498L63.5 488L60.5 483L51.5 478L43.5 474.5H39L35.5 465.5L32.5 458V454L35.5 448.5V444H27.5L17.5 438L6 431C3.16666 426.833 -1.4 416.6 3 409L11.5 388C20.1667 371 39.8 335.7 49 330.5C54.8333 323.5 66.9 309.7 68.5 310.5C70.1 311.3 62.8333 307.833 59 306C55.8333 298.833 50.7 282.4 55.5 274C60.3 265.6 56.8333 269.167 54.5 272L59 255.5L64.5 246L71 235.5L77 220L82 205.5V195L77 188.5L71 177L64.5 170L59 161.5L68.5 150.5V139.5L64.5 131C64.6667 130.833 66.2 128.1 71 118.5C75.8 108.9 84.3333 103.167 88 101.5V88.5L97.5 78.5L113 72L127.5 51L137 34.5L150 21.5L163.5 14L183 7C185.333 7 190.7 7 193.5 7C196.3 7 206.667 3 211.5 1L222 7L224 15H238L246 21.5L260.5 18.5L290.5 14L301.5 7L316 14L319.5 15L334.5 21.5H355H375H388L401 27L441.5 51.5L449.5 56.5L459 67C463.667 69 473.3 73.2 474.5 74C476 75 477 75 481.5 79.5C486 84 494.5 88.5 495 91C495.4 93 499.5 94.8333 501.5 95.5C502.333 96.6667 504 99.3 504 100.5C504 102 508 110.5 508 114C508 117.5 511 122.5 512 125.5C513 128.5 514.5 129 517.5 134C520.5 139 521 140 523 144C525 148 526 148.5 527.5 151.5C529.9 159.1 534.167 164 536 165.5L543.5 175L548 187.5L550 198V211.5L553 227L556.5 241.5L561.5 256.5L570 270.5L576.5 278.5H587.5L600.5 293V303C600.5 305.667 600.5 311.5 600.5 313.5C600.5 316 604 324.5 605.5 326C612.7 328 617.5 326.833 619 326C620.833 327.5 625.1 331 627.5 333C630.7 340.2 633.167 349.333 634 353L632 365L641 370H651V375L646 381.5L632 377C631.333 378.5 629.9 381.5 629.5 381.5C629.1 381.5 637 391.5 641 396.5L636.5 403L627.5 406L621 403C619.5 404.167 616.5 406.9 616.5 408.5C616.5 410.1 619.5 420.167 621 425L629.5 441.5H641L616.5 453L607 455V471.5C607 476.333 607 486.3 607 487.5C607 488.7 603.333 492 601.5 493.5C599.833 492.833 596.2 491.9 595 493.5C593.8 495.1 585.833 496.833 582 497.5C580.5 498.333 577.4 500.3 577 501.5C576.6 502.7 573.833 507 572.5 509L574.5 518.5L587 537.5L595 559.5C592 565 583.3 576.5 572.5 578.5L547.5 595L522.5 618L495.5 641.5L469 660.5L443 681L410 707.5L366 736L323 757.5C282.833 765 217.1 763.4 275.5 697L334.5 639.5V559.5L301.5 478L290.5 396.5L301.5 333L334.5 326L355 293L361.5 270.5C367.333 257.167 388 241.4 424 285C430.167 302.667 437.2 348 416 388C394.8 428 370.833 451.333 361.5 458C352.5 467.5 334.5 477.5 334.5 441.5" stroke="black" pathLength="1"/>
</svg>
