<svg xmlns="http://www.w3.org/2000/svg" viewBox="0 0 146.7 128.92"><title>draftTarjeta2</title><path d="M19.15,31c-9.86-9.31-25.27,7.6-16.6,16.64,3.16,3.3,8.83,3.58,12.53,1.08,5.78-3.91,6-12.1,4.1-18.09-.08-.22-.48-.2-.45.06,1.18,8.8,2.36,17.73,1.68,26.62a49.07,49.07,0,0,1-2.83,13.55c-.77,2.07-5.28,12-9.2,8.57l-1-3.74q-2.36-2.75-.33-4.48c.64-1.34,2.22-2.58,3.22-3.73C16,60.77,21.58,53.66,28.39,48,34,43.41,42.65,41.17,45.53,33.89c2.64-6.66-8-5.65-10.31-1.15-4.43,8.76,6.66,19.17,13.12,10.1,1.58-2.22,2.24-5,3.16-7.47.79-2.2,1.82-4.71,3.58-6.38.52-.49,4.82-3.25,5.83-.82.57,1.35,0,1.12-.37,1.81-.94,1.86-4.34,2.61-5.63,4.59a7.6,7.6,0,0,0-1.21,5.65c1,4.32,4.74,4.62,8.26,4,1.7-.32.31-2.53,3.15.42,2.34,2.42,1.17,7.79-.9,9.93-3.49,3.6-7.62,1.38-11.77,2.38-2.34.56-4.69,1.38-2.69,3.53,3.14,3.36,10.43,2,13.89.09,8.25-4.49,10-19.74-.64-22.44a12.93,12.93,0,0,0-1.87-.31c-2-.91-2.42-2.09-.56-4,.55-.57,1.19-1,1.75-1.59a26.74,26.74,0,0,0,2.66-3,57.47,57.47,0,0,0,6.86-12.58c1.66-3.92,2.55-8.74,4.63-12.41,1.31-2.32.16,1.68.09,2.68C76.32,10.68,74.4,11,71,10.69c-4.71-.46-4.08-.88-.17-.8a55.7,55.7,0,0,1,8.74.9c1.15.21,2.31.46,3.46.75s4.11.2,2.62,1.35c-2.19,1.7-6.63-.12-9-1a.22.22,0,0,0-.28.21,212.43,212.43,0,0,0,1.87,28.4c.79,5.76.76,13.17,6,16.9,2.87,2,5.77,2.24,6.56-1.56,1.18-5.7-3.62-11.08-1.73-16.52A8.15,8.15,0,0,1,99,33.88c4.41,1.11.65.12-.5,0a10.76,10.76,0,0,0-8.05,2.31C87.27,39,85.91,44.31,88.9,47.7c2.58,2.94,7.09,3.1,9.41-.17,1.21-1.71,1.55-3.9,1.92-5.91a43.69,43.69,0,0,1,.88-4.56,9.8,9.8,0,0,1,.94-2.43c1.53-2.35.11.76,0,1-1.19,4.45-2.52,9-.93,13.55.87,2.51,2.08,3.4,4.26,1.71s3.84-5.45,5.22-7.93a111.72,111.72,0,0,0,5.72-11.49A45.3,45.3,0,0,0,120,16.17c.2-4.25.23-11.34-3.46-14.36-3.88-3.17-5,2.05-5.46,4.91A77.87,77.87,0,0,0,111.57,32c1.3,7,3.25,16.71,7.94,22.37,3.26,3.93,7.28,2.25,9.25-2,3.47-7.45,2.28-16.76,1.37-24.62-.53-4.65-1.18-9.3-1.33-14A46.11,46.11,0,0,1,129.26,5c.07-.44,1-4,.23-3-1,1.36-.17,5.89,0,7.4.32,3.34.27,2.53-2,2s-4.58-1.35-6.83-.63a.22.22,0,0,0,0,.43,68.25,68.25,0,0,0,9.82,2.06c2.18.31,7.08,1.63,9.21.67,1.31-.59,2-.89,0-2.15-2.47-1.53-7.71-.35-9.39,2-1.23,1.71-1.17,4.32-1,6.27a96.32,96.32,0,0,0,3,15.11c2.41,9.47,7.05,17.43,11.39,26.07,3,5.92,3,10.72.51,16.82-4.58,11.33-13.32,21.25-21.89,29.76a49.51,49.51,0,0,1-11.09,8.73c-7.08,3.9-15.25,6.32-21.12,12.1-.21.2.11.52.31.32,7.79-7.67,19.45-9.39,27.65-16.54A123.74,123.74,0,0,0,136.53,92c4.79-6.56,10.92-15.47,10.09-24.08-.54-5.63-4.67-11-7.23-15.82-4.54-8.67-7-17.67-8.83-27.22-1-5.31-1.5-14.36,6.46-13.21-.4-.06,3.9.9,3,1.76-.21.2-1.08,0-1.36,0-1.18.29-3-.12-4.18-.23-2.5-.22-5-.57-7.47-1-.71-.13-1.43-.26-2.14-.42-.55-.12-4.45-.76-1.78-.64,2.45.11,4.7,1.83,6.93,2a.22.22,0,0,0,.22-.22c-.23-4.38-.93-8.26.17-12.63a.22.22,0,0,0-.43-.12c-4.08,14.06,1.53,28.1.49,42.31a36.18,36.18,0,0,1-.94,6.29,18.45,18.45,0,0,1-1.4,4q-1,3.3-4.44,2.16c-3.7.07-4.17-1-5.65-4.07a66.17,66.17,0,0,1-2.71-6.76,79.34,79.34,0,0,1-4.58-25.57c0-3-.64-11,1.05-13.53,4.28-6.39,6.31-.2,7,2.11a24.35,24.35,0,0,1,.82,6.24,42.62,42.62,0,0,1-2.65,15.49,85.48,85.48,0,0,1-10.08,19.62c-3.69,5.2-5.82-.85-5.92-4.1a23,23,0,0,1,3.26-11.87c.1-.19-.11-.45-.3-.31-3.33,2.32-3.46,6.22-4.17,9.91a18.23,18.23,0,0,1-.83,3.33c-2,4.94-7.36,4.8-10.36,1-2.82-3.57.5-8.59,3.32-10.67,3-2.21,7.23-1.57,10.48-.51.25.09.37-.27.17-.41-4.62-3.12-10.69-2.15-13.29,3.1-3,6,3,11.26,1.24,17.27s-7.74,1-9.38-2.53a16.8,16.8,0,0,1-1.2-4.77c-.95-5.92-1.78-11.83-2.29-17.8q-.32-3.78-.5-7.57C77,21,76,15.32,76.83,14c1.14-1.73,3-.52,4.65-.33a19.07,19.07,0,0,0,6.73-.57.22.22,0,0,0,0-.43A58.79,58.79,0,0,0,65.5,9.58a.23.23,0,0,0-.06.45,31.66,31.66,0,0,0,11.09,1.08.24.24,0,0,0,.23-.23l.6-9.44c0-.26-.37-.29-.44-.06-3.11,9.56-6.34,20.34-12.85,28.25-1.92,2.33-8.77,6.69-3.66,8.52,1.69.61,3.13.5,4.76,1.5a9.45,9.45,0,0,1,4.43,6.21,12.35,12.35,0,0,1-5.12,13.65c-2.69,1.78-7.57,3.41-10.74,2.07-2-.85-3.85-2.94-1.18-4.23,1.47-.71,3.31-.27,4.86-.17,8.49.55,12.55-9,6.22-14.85a.21.21,0,0,0-.31,0c-3.44,4.17-8.45,1-9.32-3.42-.72-3.64,2.78-5.56,5-7.19a11.79,11.79,0,0,0,2.81-2.6.21.21,0,0,0,0-.23c-.47-.78-.58-1.86-1.47-2.29-1.85-.89-4.4.85-5.62,2.07a16.23,16.23,0,0,0-3.49,5.94c-.64,1.7-1.12,3.43-1.83,5.1-1.66,3.87-6.47,8.71-11,5.13-3.09-2.43-5.06-7.51-3-11.2,1.1-2,5.17-5.16,7.87-3.91,6.61,3.05-3.92,10.79-6.88,12.44C29.63,45.94,24.2,50.88,19,56.65c-3.07,3.44-6,7-9.06,10.48-1.76,2.05-4.86,4.41-5.55,7.14-.9,3.55,3.09,6.35,6.32,5.58,5-1.2,7.14-7.95,8.35-12.21,2.26-8,2.23-16.38,1.54-24.56-.23-2.67-.54-5.34-.88-8-.11-.88-.18-1.78-.34-2.65a22.35,22.35,0,0,0,.27,2.48c.71,5.82-1.46,13.17-7.86,14.73C5,51.29-.55,45.57,1.14,38.74,3,31,11.92,24.76,18.83,31.29c.21.2.53-.12.32-.32Z"/></svg>