<svg xmlns="http://www.w3.org/2000/svg" viewBox="0 0 332.43 478.17"><defs><style>.a{fill:none;stroke:#000;stroke-miterlimit:10;stroke-width:2px;}</style></defs><title>Face</title><path class="a" d="M331.44.16,326.9,27.8l-8.52,38.7L305.32,96.6l-17.6,22.73-15.34,14.74s-17.6,8-23.85,9.22-36.91.61-57.36-11.67-40.88-35-42.59-42.39S143.47,61,179.82,52.37c0,0,47.7,1.23,31.8,43.62,0,0-9.66,18.43-31.24,44.84s-15.9,50.37-15.9,50.37,37.48,57.13,102.79,0c0,0,15-24,1.14-36.86,0,0-25.37,4.3-28.87,0-2.57-3.15-19.43-4.65-28.25-5.23a9.08,9.08,0,0,0-8,3.95c-4.48,6.36-14.61,17.28-29.74,14.18l-23.28-18.43s-4.76-4.3-13.74-2.45S120.76,96.6,120.76,96.6s2.84-68.8,34.07-68.8,25.55,43.62,25.55,43.62-15.9,41.77-34.64,57.12-22.14,55.29-22.14,55.29,11.35,41.77,55.65,43,82.91,6.75,116.42-37.47S287.72,80,287.72,80s-49.41-30.1-59.06,46.07c0,0,3.4,40.54,11.92,41.15,4.88.35,5.1,4.53,4.4,8a8.59,8.59,0,0,1-5.29,6.43c-7.36,2.75-24.1,7.44-36.59-.94,0,0-25-27-27.26-20.27s21,28.25-5.11,24.57c-20-2.82-29.37.1-32.7,1.64a11.52,11.52,0,0,1-4.14,1c-9.47.52-40.57,0-31.87-30.32,10.22-35.62,92-47.91,92-47.91s46-14.13,50.55-41.77S216,35.79,216,35.79s-11.73,0-22,4.91-6.24,9.83-22.14,9.83-35.32-3.07-35.32-3.07l-10.11-.61-13.63,4.3L93.5,56.06l-18.74,8.6-17,16L46.36,100.29,25.92,147l-3.41,19v30.1L19.1,222.53l-5.67,22.72L7.18,263.07,2.07,277.2s-4.55,10.44,5.11,14.12,17,0,17,0,7.38-7.37,11.35-6.14,14.77,1.85,15.9-1.84-3.4-4.91-3.4-4.91S36.14,275.35,39,299.31s21,71.26,34.64,80.47,12.5,47.3,109.6,40.54c0,0,47.71-.61,89.73-49.75,0,0,21-22.73,22.72-78,0,0,4.54-52.21-10.79-50.37,0,0-14.2-3.68-14.77,58.36,0,0,6.82,101.35,15.9,111.8s15.34,65.72,15.34,65.72" pathLength="1"/></svg>